<svg width="90" height="102" viewBox="0 0 90 102" fill="none" xmlns="http://www.w3.org/2000/svg">
<rect x="0.6" y="0.600122" width="88.8" height="100.8" rx="5.4" stroke="#D8D8D8" stroke-width="0.8"/>
<g clip-path="url(#clip0)">
<path d="M56.3147 46.4579C55.6976 46.4158 55.142 46.876 55.0931 47.5022L54.0909 60.3045L53.0887 47.5022C53.0398 46.876 52.4864 46.4159 51.8671 46.4579C51.2409 46.5067 50.7739 47.0533 50.8227 47.6795L52.958 74.9522C53.0046 75.5443 53.4977 76 54.091 76C54.6842 76 55.1773 75.5443 55.2239 74.9522L57.3592 47.6795C57.4079 47.0534 56.9409 46.5068 56.3147 46.4579Z" fill="#ED6639"/>
<path d="M62.0455 30.5454C61.417 30.5454 60.9091 31.0533 60.9091 31.6817C60.9091 32.3102 61.417 32.8181 62.0455 32.8181C64.5523 32.8181 66.5909 34.8567 66.5909 37.3635C66.5909 39.8702 64.5522 41.9089 62.0455 41.9089H57.8102L58.6193 31.5691C58.7489 29.9123 58.1227 28.2896 56.9022 27.1191C55.3954 25.6748 52.7851 25.6748 51.2806 27.1191C50.3124 28.0464 49.726 29.2578 49.5852 30.5453H45C43.1205 30.5453 41.591 29.0157 41.591 27.1362C41.591 26.5079 41.0819 26 40.4546 26C39.8274 26 39.3183 26.5079 39.3183 27.1363C39.3183 30.2692 41.8671 32.8182 45.0001 32.8182H49.6604L50.3717 41.9091H32.5C26.2341 41.9091 21.1364 47.0068 21.1364 53.2728C21.1364 59.5387 26.2341 64.6363 32.5 64.6363H45C45.6285 64.6363 46.1364 64.1284 46.1364 63.5C46.1364 62.8716 45.6285 62.3637 45 62.3637H32.5C27.4875 62.3637 23.4091 58.2853 23.4091 53.2728C23.4091 48.2603 27.4875 44.1818 32.5 44.1818H56.5523C56.5625 44.1818 56.5727 44.183 56.5819 44.183C56.5841 44.183 56.5853 44.1818 56.5875 44.1818H62.0455C65.8057 44.1818 68.8636 41.1239 68.8636 37.3637C68.8637 33.6034 65.8057 30.5454 62.0455 30.5454ZM56.3535 31.3921L55.5307 41.9092H52.6523L51.9398 32.8183H54.091C54.7194 32.8183 55.2273 32.3104 55.2273 31.6819C55.2273 31.0535 54.7194 30.5456 54.091 30.5456H51.8864C52.0136 29.8785 52.3386 29.2524 52.8535 28.7604C53.4989 28.141 54.6831 28.141 55.3296 28.7604C56.058 29.4579 56.4307 30.4171 56.3535 31.3921Z" fill="#ED6639"/>
<path d="M45.666 54.4091H32.9705C31.458 54.4091 30.2273 55.6397 30.2273 57.1522C30.2273 57.8761 30.5205 58.5829 31.0307 59.092L32.833 60.8942C33.0455 61.1079 33.3352 61.2271 33.6364 61.2271H45C45.3023 61.2271 45.591 61.1078 45.8035 60.8942L47.6057 59.092C48.116 58.5817 48.4091 57.8749 48.4091 57.1522C48.4091 55.6397 47.1785 54.4091 45.666 54.4091ZM45.9989 57.4852L44.5295 58.9546H34.1069L32.6375 57.4842C32.55 57.3978 32.5 57.2762 32.5 57.1523C32.5 56.8932 32.7114 56.6819 32.9705 56.6819H45.6659C45.925 56.6819 46.1363 56.8932 46.1363 57.1523C46.1364 57.2761 46.0864 57.3977 45.9989 57.4852Z" fill="#ED6639"/>
<path d="M47.6056 71.3172L45.8033 69.5149C45.5908 69.3012 45.3022 69.182 44.9999 69.182H33.6362C33.3351 69.182 33.0453 69.3013 32.8328 69.5149L31.0317 71.3161C30.5203 71.8263 30.2271 72.5332 30.2271 73.257C30.2271 74.7695 31.4577 76.0002 32.9702 76.0002H45.6656C47.1781 76.0002 48.4088 74.7695 48.4088 73.257C48.409 72.5342 48.1158 71.8273 47.6056 71.3172ZM45.6658 73.7273H32.9703C32.7112 73.7273 32.4999 73.516 32.4999 73.2568C32.4999 73.133 32.5499 73.0114 32.6374 72.9239L34.1068 71.4546H44.5295L45.9988 72.9239C46.0863 73.0114 46.1363 73.133 46.1363 73.2568C46.1362 73.516 45.9249 73.7273 45.6658 73.7273Z" fill="#ED6639"/>
<path d="M45 65.7727H33.6363C33.0091 65.7727 32.5 66.2806 32.5 66.909C32.5 67.5375 33.0091 68.0454 33.6363 68.0454H45C45.6284 68.0454 46.1363 67.5375 46.1363 66.909C46.1363 66.2806 45.6284 65.7727 45 65.7727Z" fill="#ED6639"/>
</g>
<defs>
<clipPath id="clip0">
<rect width="50" height="50" fill="white" transform="translate(20 26)"/>
</clipPath>
</defs>
</svg>
