<svg width="90" height="102" viewBox="0 0 90 102" fill="none" xmlns="http://www.w3.org/2000/svg">
<rect x="0.6" y="0.6" width="88.8" height="100.8" rx="5.4" stroke="#D8D8D8" stroke-width="0.8"/>
<g clip-path="url(#clip0)">
<path d="M63.4359 30.5313C63.5789 30.6743 63.7664 30.7458 63.9538 30.7458C64.1412 30.7458 64.3287 30.6744 64.4716 30.5313L65.2293 29.7737C65.5153 29.4876 65.5153 29.0239 65.2293 28.7378C64.9432 28.4518 64.4795 28.4518 64.1935 28.7378L63.4359 29.4955C63.1499 29.7815 63.1499 30.2453 63.4359 30.5313Z" fill="#ED6639"/>
<path d="M49.972 62.2909C49.972 62.0499 50.1681 61.8538 50.4091 61.8538C50.6501 61.8538 50.8462 62.0499 50.8462 62.2909C50.8462 62.6954 51.1741 63.0233 51.5786 63.0233C51.9831 63.0233 52.3111 62.6954 52.3111 62.2909C52.3111 61.2421 51.4578 60.3889 50.4091 60.3889C49.3604 60.3889 48.5072 61.2421 48.5072 62.2909C48.5072 62.6954 48.8351 63.0233 49.2396 63.0233C49.6441 63.0233 49.972 62.6954 49.972 62.2909Z" fill="#ED6639"/>
<path d="M49.9922 70.0591C50.0432 70.0698 50.0941 70.075 50.1443 70.075C50.4831 70.075 50.7873 69.8385 50.8602 69.4937C50.9095 69.2598 51.1194 69.0902 51.3594 69.0902C51.5835 69.0902 51.7847 69.2398 51.8484 69.4541C51.964 69.8418 52.3717 70.0625 52.7595 69.9469C53.1472 69.8314 53.3678 69.4236 53.2524 69.0359C53.005 68.2054 52.2266 67.6254 51.3594 67.6254C50.4312 67.6254 49.6185 68.2839 49.427 69.1912C49.3433 69.5869 49.5964 69.9756 49.9922 70.0591Z" fill="#ED6639"/>
<path d="M55.8912 63.1422C54.9631 63.1422 54.1504 63.8007 53.9588 64.7079C53.8752 65.1037 54.1282 65.4923 54.524 65.5759C54.575 65.5868 54.6258 65.5919 54.676 65.5919C55.0149 65.5919 55.3191 65.3555 55.392 65.0107C55.4414 64.7768 55.6513 64.6072 55.8912 64.6072C56.131 64.6072 56.341 64.7769 56.3903 65.0107C56.4739 65.4064 56.8626 65.6595 57.2583 65.576C57.6541 65.4924 57.9071 65.1037 57.8236 64.708C57.632 63.8007 56.8193 63.1422 55.8912 63.1422Z" fill="#ED6639"/>
<path d="M47.3147 63.7271C46.4478 63.7271 45.6692 64.307 45.4218 65.1375C45.3063 65.5252 45.5269 65.933 45.9146 66.0485C45.9844 66.0693 46.0547 66.0793 46.124 66.0793C46.4396 66.0793 46.731 65.8737 46.8257 65.5559C46.8896 65.3416 47.0907 65.1919 47.3148 65.1919C47.5104 65.1919 47.6858 65.301 47.7728 65.4765C47.9522 65.839 48.3913 65.9873 48.7541 65.808C49.1166 65.6286 49.265 65.1893 49.0856 64.8267C48.7497 64.1483 48.0712 63.7271 47.3147 63.7271Z" fill="#ED6639"/>
<path d="M68.291 51.0328H59.1614C58.9986 49.6817 57.8459 48.6308 56.4516 48.6308C55.0572 48.6308 53.9044 49.6817 53.7416 51.0328H51.3837L53.9063 43.289C54.1304 43.4911 54.4172 43.6029 54.722 43.6029C55.0484 43.6029 55.355 43.4762 55.5852 43.246L58.5634 40.2678C58.851 39.9802 58.9636 39.5838 58.9036 39.2099L67.0039 31.1096C67.5641 30.5494 67.8781 29.8065 67.8881 29.0175C67.8981 28.2216 67.5983 27.4778 67.0437 26.9234C65.9006 25.7802 64.0227 25.7981 62.8576 26.9631L54.7573 35.0634C54.6934 35.0532 54.6285 35.0467 54.5625 35.0467C54.236 35.0467 53.9295 35.1735 53.6993 35.4036L50.7211 38.3819C50.2604 38.8427 50.2471 39.5823 50.6783 40.0609L37.0533 44.4991C34.8831 44.9302 32.8996 45.9948 31.3143 47.5801C30.3011 48.5932 29.5056 49.764 28.9498 51.0328H21.709C20.7667 51.0328 20 51.7995 20 52.7418V53.615C20 54.5572 20.7667 55.3239 21.709 55.3239H22.3885C22.6788 57.2077 23.2038 59.041 23.9462 60.7846C23.9512 60.7972 23.9563 60.8096 23.962 60.8219C24.7351 62.6281 25.7417 64.3376 26.9651 65.905C29.5232 69.1823 32.9136 71.6941 36.7829 73.1832V74.7017C36.7829 75.3748 37.3305 75.9224 38.0036 75.9224H51.9965C52.6695 75.9224 53.2172 75.3748 53.2172 74.7017V73.1811C56.6181 71.8713 59.6894 69.7448 62.1118 67.014C62.3803 66.7113 62.3525 66.2485 62.05 65.9801C61.7474 65.7116 61.2846 65.7395 61.0161 66.0419C58.6952 68.6581 55.7396 70.684 52.4667 71.9018H37.5334C32.2665 69.9423 28.1118 66.1016 25.7498 61.2506H47.1038C47.4885 61.2506 47.8077 60.9529 47.8345 60.5693C47.9177 59.3768 48.9202 58.4426 50.1168 58.4426C50.9746 58.4426 51.7534 58.9165 52.1494 59.6795C52.2437 59.8612 52.4099 59.9952 52.6074 60.0489C52.805 60.1027 53.0161 60.0711 53.1895 59.9621C53.5534 59.7332 53.9737 59.6122 54.4051 59.6122C55.2652 59.6122 56.045 60.0881 56.4402 60.8541C56.5659 61.0977 56.8171 61.2507 57.0911 61.2507H64.2263C63.7992 62.1232 63.3144 62.968 62.7712 63.7754C62.5454 64.111 62.6345 64.5661 62.9701 64.7919C63.0955 64.8763 63.2376 64.9167 63.3782 64.9167C63.6139 64.9167 63.8452 64.8031 63.9866 64.593C64.7749 63.4211 65.4498 62.1764 66.0072 60.8821C66.0362 60.8316 66.0594 60.7774 66.0758 60.7201C66.8047 58.9915 67.3229 57.1762 67.6095 55.3238H68.2912C69.2335 55.3238 70.0002 54.5571 70.0002 53.6149V52.7417C70 51.7994 69.2333 51.0328 68.291 51.0328ZM63.8935 27.9989C64.4874 27.405 65.436 27.3872 66.008 27.9592C66.2809 28.232 66.4284 28.6014 66.4233 28.999C66.4183 29.4036 66.2565 29.7854 65.9681 30.0738L63.8939 32.148L61.8191 30.0732L63.8935 27.9989ZM60.7835 31.1088L62.8583 33.1836L58.032 38.0099L55.9572 35.9351L60.7835 31.1088ZM54.5625 36.612L57.355 39.4045L54.722 42.0375L51.9295 39.245L54.5625 36.612ZM38.2477 73.3667H51.7522V74.4576H38.2477V73.3667ZM56.4516 50.0955C57.0356 50.0955 57.5272 50.4939 57.6723 51.0327H55.2308C55.3759 50.494 55.8675 50.0955 56.4516 50.0955ZM50.4345 49.2174L49.8431 51.0328H49.5423L50.4345 49.2174ZM49.4049 47.9911L47.9102 51.0328H47.2876L49.4049 47.9911ZM45.5026 51.0328H43.97L49.0137 45.9892L45.5026 51.0328ZM43.5199 47.1644C43.7511 47.4963 44.2075 47.5781 44.5395 47.347L47.9777 44.9535L41.8984 51.0328H39.277C39.9747 50.4783 40.6723 49.983 41.3529 49.5638C41.3646 49.5567 41.376 49.5491 41.3872 49.5413L41.7074 49.3185C42.0395 49.0873 42.1212 48.631 41.8901 48.2989C41.6591 47.9668 41.2025 47.8853 40.8706 48.1162L40.5671 48.3276C39.3991 49.0487 38.1894 49.9708 37.0119 51.0329H34.5628C34.5966 50.9985 34.6285 50.9631 34.6627 50.9289C36.0825 49.5091 37.7187 48.4247 39.3944 47.7929C39.4164 47.7847 39.438 47.7753 39.4591 47.7649L45.9761 44.5621L43.7024 46.1448C43.3706 46.3759 43.2888 46.8323 43.5199 47.1644ZM32.35 48.6158C33.7391 47.2269 35.4776 46.2975 37.3777 45.9282C37.4072 45.9225 37.4363 45.915 37.4648 45.9057L44.7496 43.5327L38.8443 46.4349C36.987 47.1412 35.1837 48.3364 33.6271 49.8931C33.26 50.2602 32.9169 50.6419 32.593 51.0328H30.575C31.0328 50.1547 31.627 49.339 32.35 48.6158ZM25.1041 59.7859C24.5402 58.3653 24.1233 56.8717 23.8699 55.3239H28.0233C28.0042 56.8952 28.3194 58.4086 28.935 59.7859H25.1041ZM29.6748 56.7684C29.6554 56.8596 29.6377 56.9502 29.6209 57.0405C29.5249 56.4812 29.48 55.9073 29.4882 55.324H30.0899C29.9173 55.8048 29.7774 56.2874 29.6748 56.7684ZM30.9425 59.0071C30.9087 58.4068 30.9612 57.759 31.1074 57.0739C31.2315 56.4922 31.4184 55.9063 31.6597 55.3239H33.0878C32.3639 56.3011 31.7607 57.2665 31.313 58.177C31.169 58.4698 31.047 58.7456 30.9425 59.0071ZM32.2134 59.7859C32.3184 59.4959 32.4541 59.1759 32.6274 58.8235C33.1693 57.7215 33.9633 56.525 34.9402 55.3239H37.6074L33.1455 59.7859H32.2134ZM35.217 59.7859L39.6789 55.3239H42.4149C41.9158 55.9133 41.3771 56.4991 40.8051 57.0711C39.7744 58.1018 38.7059 59.0214 37.6598 59.7859H35.217ZM48.0614 56.5024C48.0521 56.5309 48.0446 56.56 48.0389 56.5895C47.9543 57.0244 47.84 57.4508 47.698 57.8665C47.1159 58.3586 46.6832 59.0245 46.4846 59.7859H44.6005C44.6904 59.6872 44.7811 59.5889 44.8679 59.489C45.1333 59.1837 45.101 58.7211 44.7957 58.4557C44.4904 58.1902 44.0277 58.2225 43.7624 58.5278C43.5322 58.7926 43.2886 59.0538 43.0383 59.3041C42.8723 59.4701 42.7026 59.6296 42.5313 59.7859H40.0186C40.6413 59.2576 41.2537 58.6942 41.8409 58.1068C42.7453 57.2025 43.5729 56.2627 44.2983 55.3238H45.8583C45.7359 55.5891 45.6028 55.8536 45.4583 56.1153C45.2628 56.4694 45.3914 56.9151 45.7455 57.1105C46.0998 57.306 46.5452 57.1773 46.7406 56.8233C47.013 56.3299 47.2499 55.8266 47.4513 55.3238H48.4451L48.0614 56.5024ZM64.8767 59.7859H57.5059C56.8113 58.765 55.6604 58.1474 54.4049 58.1474C53.9409 58.1474 53.4847 58.2328 53.0568 58.3976C52.3528 57.5081 51.2789 56.9778 50.1166 56.9778C49.8859 56.9778 49.6598 56.9996 49.4397 57.0402C49.4487 56.998 49.4595 56.9564 49.4679 56.914L49.9858 55.324H66.125C65.8722 56.8503 65.452 58.3483 64.8767 59.7859ZM68.5352 53.615C68.5352 53.7473 68.4233 53.8591 68.291 53.8591H21.709C21.5767 53.8591 21.4648 53.7473 21.4648 53.615V52.7418C21.4648 52.6095 21.5767 52.4977 21.709 52.4977H68.291C68.4233 52.4977 68.5352 52.6095 68.5352 52.7418V53.615Z" fill="#ED6639"/>
<path d="M60.3012 44.6349C59.1988 44.6349 58.3018 45.5318 58.3018 46.6343C58.3018 47.7368 59.1988 48.6337 60.3012 48.6337C61.4036 48.6337 62.3006 47.7367 62.3006 46.6343C62.3006 45.5319 61.4037 44.6349 60.3012 44.6349ZM60.3012 47.1689C60.0065 47.1689 59.7666 46.929 59.7666 46.6343C59.7666 46.3396 60.0065 46.0997 60.3012 46.0997C60.5959 46.0997 60.8358 46.3395 60.8358 46.6343C60.8358 46.929 60.596 47.1689 60.3012 47.1689Z" fill="#ED6639"/>
<path d="M32.5577 40.6046C31.294 40.6046 30.2659 41.6327 30.2659 42.8964C30.2659 44.1601 31.294 45.1882 32.5577 45.1882C33.8213 45.1882 34.8495 44.1601 34.8495 42.8964C34.8495 41.6326 33.8213 40.6046 32.5577 40.6046ZM32.5577 43.7233C32.1017 43.7233 31.7307 43.3523 31.7307 42.8963C31.7307 42.4404 32.1017 42.0694 32.5577 42.0694C33.0136 42.0694 33.3846 42.4404 33.3846 42.8963C33.3846 43.3523 33.0136 43.7233 32.5577 43.7233Z" fill="#ED6639"/>
<path d="M37.5281 41.6795C38.6306 41.6795 39.5275 40.7825 39.5275 39.6801C39.5275 38.5775 38.6305 37.6807 37.5281 37.6807C36.4256 37.6807 35.5287 38.5776 35.5287 39.6801C35.5288 40.7826 36.4256 41.6795 37.5281 41.6795ZM37.5281 39.1456C37.8229 39.1456 38.0627 39.3855 38.0627 39.6802C38.0627 39.9749 37.8228 40.2147 37.5281 40.2147C37.2334 40.2147 36.9935 39.9749 36.9935 39.6802C36.9936 39.3854 37.2334 39.1456 37.5281 39.1456Z" fill="#ED6639"/>
<path d="M32.7525 38.3659C34.3387 38.3659 35.6291 37.0755 35.6291 35.4894C35.6291 33.9032 34.3387 32.6128 32.7525 32.6128C31.1664 32.6128 29.876 33.9032 29.876 35.4894C29.876 37.0755 31.1664 38.3659 32.7525 38.3659ZM32.7525 34.0776C33.531 34.0776 34.1643 34.7109 34.1643 35.4894C34.1643 36.2678 33.531 36.9011 32.7525 36.9011C31.9741 36.9011 31.3408 36.2678 31.3408 35.4894C31.3408 34.7109 31.9741 34.0776 32.7525 34.0776Z" fill="#ED6639"/>
</g>
<defs>
<clipPath id="clip0">
<rect width="50" height="50" fill="white" transform="translate(20 26)"/>
</clipPath>
</defs>
</svg>
