<svg width="90" height="102" viewBox="0 0 90 102" fill="none" xmlns="http://www.w3.org/2000/svg">
<rect x="0.6" y="0.600122" width="88.8" height="100.8" rx="5.4" stroke="#D8D8D8" stroke-width="0.8"/>
<path d="M66.8411 28.9102C64.9026 27.0356 62.3498 26.0033 59.6532 26.0033C56.9566 26.0033 54.4037 27.0357 52.4651 28.9103L52.335 29.0362C49.1794 32.0877 48.295 36.816 50.1345 40.8019L53.392 47.8605V71.635C53.392 74.0402 55.3487 75.9969 57.7538 75.9969H61.1381C63.5432 75.9969 65.4998 74.0402 65.4998 71.635V47.8708L68.9282 40.9137C70.9214 36.8689 70.0827 32.045 66.8411 28.9102ZM63.5469 71.6349C63.5469 72.9632 62.4662 74.0439 61.138 74.0439H57.7537C56.4254 74.0439 55.3448 72.9633 55.3448 71.6349V56.761H59.6431V63.0545C59.6431 63.5937 60.0802 64.031 60.6196 64.031C61.1588 64.031 61.596 63.5938 61.596 63.0545V56.761H63.5468V71.6349H63.5469ZM55.3448 54.8081V48.5989H56.826C56.8275 48.5989 56.8288 48.5991 56.8302 48.5991C56.8318 48.5991 56.8333 48.5989 56.8348 48.5989H62.3412C62.3428 48.5989 62.3444 48.5991 62.3458 48.5991C62.3473 48.5991 62.3487 48.5989 62.35 48.5989H63.5468V54.8081H55.3448ZM67.1764 40.0506L63.9263 46.646H63.4974L64.2843 41.9244C64.373 41.3925 64.0136 40.8893 63.4817 40.8006C62.9498 40.7122 62.4466 41.0713 62.3579 41.6034L61.5175 46.646H60.4223V41.7638C60.4223 41.2247 59.9852 40.7873 59.4458 40.7873C58.9066 40.7873 58.4694 41.2246 58.4694 41.7638V46.646H57.6585L56.818 41.6033C56.7294 41.0715 56.2262 40.7122 55.6943 40.8006C55.1623 40.8893 54.803 41.3924 54.8916 41.9245L55.6786 46.646H54.9822L51.9075 39.9836C50.4155 36.7505 51.1328 32.9153 53.6926 30.44L53.8227 30.3141C57.0921 27.1528 62.2141 27.1528 65.4834 30.3141C68.1129 32.8568 68.7933 36.7696 67.1764 40.0506Z" fill="#ED6639"/>
<path d="M33.0843 57.2591V52.953C33.0843 52.1539 32.6014 51.4663 31.9126 51.1643V45.1308C31.9126 44.0491 31.3203 43.0598 30.3668 42.5488L27.2422 40.8746C26.3258 40.3836 25.2462 40.409 24.354 40.9433C23.4619 41.4772 22.9294 42.4167 22.9294 43.4565V51.1642C22.2405 51.4662 21.7577 52.1538 21.7577 52.9529V57.259C20.7722 57.3573 20 58.191 20 59.2021V73.0675C20 74.6827 21.3141 75.9968 22.9293 75.9968H31.9125C33.5277 75.9968 34.8418 74.6827 34.8418 73.0675V59.2021C34.8419 58.1911 34.0697 57.3574 33.0843 57.2591ZM24.8822 43.4565C24.8822 42.957 25.2143 42.7042 25.357 42.6187C25.4998 42.5333 25.8795 42.36 26.3197 42.5958L29.4443 44.2701C29.7622 44.4404 29.9596 44.7702 29.9596 45.1307V50.9999H24.8822V43.4565ZM23.7104 52.953H23.9058H30.9361H31.1314V57.2492H23.7105V52.953H23.7104ZM32.8889 73.0676C32.8889 73.6059 32.451 74.044 31.9125 74.044H30.1549V66.6231C30.1549 66.084 29.7178 65.6467 29.1784 65.6467C28.6391 65.6467 28.2019 66.0839 28.2019 66.6231V74.044H22.9293C22.3909 74.044 21.9528 73.606 21.9528 73.0676V59.2022H32.8889V73.0676Z" fill="#ED6639"/>
<path d="M29.8688 62.2222C29.6872 62.0405 29.4363 61.936 29.1785 61.936C28.9217 61.936 28.6698 62.0404 28.4882 62.2222C28.3065 62.4038 28.202 62.6557 28.202 62.9125C28.202 63.1693 28.3065 63.4212 28.4882 63.6027C28.6698 63.7844 28.9217 63.889 29.1785 63.889C29.4363 63.889 29.6872 63.7845 29.8688 63.6027C30.0505 63.4212 30.155 63.1693 30.155 62.9125C30.155 62.6557 30.0505 62.4037 29.8688 62.2222Z" fill="#ED6639"/>
<path d="M48.7073 50.0236H44.2157V40.4545H45.8768C46.4161 40.4545 46.8533 40.0173 46.8533 39.4781C46.8533 38.9388 46.4162 38.5016 45.8768 38.5016H44.2157V37.3299H45.8768C46.4161 37.3299 46.8533 36.8927 46.8533 36.3534C46.8533 35.8142 46.4162 35.377 45.8768 35.377H44.2157V34.2053H45.8768C46.4161 34.2053 46.8533 33.7681 46.8533 33.2288C46.8533 32.6896 46.4162 32.2524 45.8768 32.2524H44.2157V31.0807H45.8768C46.4161 31.0807 46.8533 30.6435 46.8533 30.1042C46.8533 29.565 46.4162 29.1278 45.8768 29.1278H44.2157V27.9561H45.8768C46.4161 27.9561 46.8533 27.5189 46.8533 26.9796C46.8533 26.4404 46.4162 26.0032 45.8768 26.0032H40.6018C40.0626 26.0032 39.6254 26.4404 39.6254 26.9796C39.6254 27.5189 40.0625 27.9561 40.6018 27.9561H42.2629V29.1278H40.6017C40.0625 29.1278 39.6253 29.565 39.6253 30.1042C39.6253 30.6435 40.0624 31.0807 40.6017 31.0807H42.2629V32.2524H40.6017C40.0625 32.2524 39.6253 32.6896 39.6253 33.2288C39.6253 33.7681 40.0624 34.2053 40.6017 34.2053H42.2629V35.377H40.6017C40.0625 35.377 39.6253 35.8142 39.6253 36.3534C39.6253 36.8927 40.0624 37.3299 40.6017 37.3299H42.2629V38.5016H40.6017C40.0625 38.5016 39.6253 38.9388 39.6253 39.4781C39.6253 40.0173 40.0624 40.4545 40.6017 40.4545H42.2629V50.0236H37.7713C37.232 50.0236 36.7948 50.4608 36.7948 51.0001V61.9072C36.7948 66.71 38.1106 71.4195 40.6001 75.5265C40.7771 75.8185 41.0936 75.9967 41.4351 75.9967H45.0434C45.3849 75.9967 45.7015 75.8184 45.8785 75.5265C48.3679 71.4194 49.6837 66.7099 49.6837 61.9072V51C49.6836 50.4607 49.2465 50.0236 48.7073 50.0236ZM47.7308 61.9071C47.7308 66.1705 46.6104 70.3549 44.4862 74.0439H41.9921C39.8679 70.3548 38.7475 66.1705 38.7475 61.9071V56.2727H44.6316C45.1709 56.2727 45.6081 55.8355 45.6081 55.2963C45.6081 54.757 45.171 54.3198 44.6316 54.3198H38.7475V51.9764H47.7307V61.9071H47.7308Z" fill="#ED6639"/>
<path d="M61.3101 65.7814C61.1285 65.5997 60.8766 65.4952 60.6198 65.4952C60.3629 65.4952 60.1111 65.5996 59.9294 65.7814C59.7478 65.963 59.6433 66.2148 59.6433 66.4717C59.6433 66.7285 59.7478 66.9804 59.9294 67.1619C60.1111 67.3445 60.3629 67.4482 60.6198 67.4482C60.8766 67.4482 61.1285 67.3445 61.3101 67.1619C61.4917 66.9804 61.5962 66.7294 61.5962 66.4717C61.5962 66.2148 61.4917 65.963 61.3101 65.7814Z" fill="#ED6639"/>
</svg>
